<?xml version="1.0" encoding="UTF-8"?>
<!-- Created with Inkscape (http://www.inkscape.org/) -->
<svg width="512" height="512" version="1.1" viewBox="0 0 512 512" xml:space="preserve" xmlns="http://www.w3.org/2000/svg"><defs><mask id="mask21" maskUnits="userSpaceOnUse"><rect x="88.341" y="49.239" width="367.09" height="345.79" fill="#fff"/><path transform="translate(-1.0187e-5 2.6744e-5)" d="m275.54 157.73c-3.5846 0-15.932 7.2733-17.23 11.678-1.2987 4.4044 1.1618 7.4134 2.3613 13.957 1.1996 6.5436 2.7238 33.345 3.1914 40.166 0.46745 6.8194 3.9254 18.617 11.678 18.623 7.7523-6e-3 11.212-11.804 11.68-18.623 0.46756-6.8211 1.9918-33.622 3.1914-40.166 1.1996-6.5436 3.66-9.5526 2.3613-13.957s-13.648-11.678-17.232-11.678zm-76.12 131.71c1.7923 3.1044 14.265 10.161 18.728 9.0832 4.4637-1.0775 5.8394-4.7128 10.906-9.0235 5.0671-4.3106 27.516-19.031 33.189-22.847 5.672-3.8145 14.16-12.708 10.289-19.425-3.8812-6.7108-15.828-3.8083-21.968-0.80339-6.141 3.0056-30.114 15.086-36.38 17.319-6.2667 2.2329-10.103 1.6066-13.268 4.9336-3.165 3.3269-3.2893 17.658-1.497 20.763zm152.13 0.0668c1.7923-3.1044 1.667-17.434-1.498-20.761-3.165-3.3269-7.0011-2.7006-13.268-4.9336-6.2667-2.2329-30.239-14.314-36.38-17.319-6.1395-3.0049-18.086-5.9091-21.967 0.80169-3.8711 6.7166 4.6162 15.612 10.288 19.426 5.6735 3.8155 28.122 18.536 33.189 22.847 5.0671 4.3107 6.4428 7.946 10.906 9.0235s16.937-5.9805 18.729-9.0848z"/></mask></defs><g transform="translate(4.339)"><g transform="rotate(30,245.92,213.01)" mask="url(#mask21)"><path transform="rotate(-60,256,256)" d="m274.83 154.08-4.2539 4.2734c-5.2737 5.2994-13.438 13.884-20.428 23.021s-13.403 18.198-13.264 28.09c0.28438 20.22 15.574 36.785 21.176 42.752 1.5702 1.6726 3.6232 5.392 5.5664 9-4.1126 0.12252-8.3879 0.2054-10.631-0.32032-7.9675-1.8674-29.958-6.8286-47.611 3.0352-8.6361 4.8254-13.277 14.909-17.695 25.531-4.4181 10.622-7.7701 21.988-9.7227 29.205l-1.5742 5.8203 5.8281 1.5449c7.2262 1.9174 18.744 4.6972 30.152 6.1816 11.408 1.4845 22.46 2.5076 30.957-2.5586 17.369-10.356 24.069-31.88 26.436-39.715 0.66338-2.196 2.8588-5.8336 5.0117-9.3203 2.1626 3.5006 4.3728 7.1597 5.0391 9.3652 2.3665 7.8338 9.0646 29.36 26.434 39.717 8.497 5.0664 19.551 4.0435 30.959 2.5586s22.926-4.2662 30.152-6.1836l5.8281-1.5449-1.5762-5.8203c-1.9526-7.2168-5.3024-18.581-9.7207-29.203s-9.0614-20.706-17.697-25.531c-17.653-9.8636-39.643-4.9047-47.611-3.0371-2.2335 0.5235-6.48 0.44147-10.576 0.32031 1.95-3.6226 4.0152-7.3654 5.5918-9.0449 5.601-5.9664 20.893-22.532 21.178-42.752 0.13912-9.8918-6.2737-18.953-13.264-28.09-6.99-9.1372-15.156-17.722-20.43-23.021zm0 17.217c4.7226 4.9351 10.199 10.895 15.152 17.369 6.4452 8.425 10.838 17.568 10.795 20.631-0.19315 13.733-12.895 29.344-17.928 34.705-3.6499 3.888-5.8336 8.6183-7.75 12.188-0.11024 0.20532-0.16178 0.25631-0.26953 0.45313-0.10778-0.19684-0.15925-0.24778-0.26953-0.45313-1.9168-3.5692-4.1004-8.2998-7.75-12.188-5.0321-5.3603-17.733-20.972-17.926-34.705-0.0431-3.063 4.3483-12.206 10.793-20.631 4.9525-6.4743 10.43-12.434 15.152-17.369zm-42.27 99.057c7.3616 0.17083 14.118 1.3876 17.697 2.2266 5.192 1.2169 10.38 0.74412 14.43 0.61914 0.23301-7e-3 0.30295 0.011 0.52735 6e-3 -0.11677 0.19207-0.13491 0.26242-0.25782 0.46094-2.1326 3.4446-5.1357 7.7002-6.6777 12.805-2.1261 7.0381-9.2971 25.845-21.094 32.879-2.6311 1.5688-12.747 2.3356-23.266 0.9668-8.0834-1.0519-15.982-2.8152-22.617-4.4375 1.9126-6.5576 4.3362-14.28 7.4668-21.807 4.0737-9.7942 9.7948-18.17 12.469-19.664 5.9947-3.3495 13.961-4.2255 21.322-4.0547zm84.461 0.0449c7.3614-0.17046 15.325 0.70699 21.32 4.0566 2.6742 1.4942 8.3968 9.8703 12.471 19.664 3.1305 7.5258 5.5522 15.248 7.4648 21.805-6.6352 1.6223-14.534 3.3854-22.617 4.4375-10.519 1.3692-20.633 0.60381-23.264-0.96485-11.796-7.0336-18.967-25.84-21.094-32.879-1.5421-5.1049-4.5468-9.3624-6.6797-12.807-0.12296-0.19857-0.14099-0.26882-0.25781-0.46094 0.2252 5e-3 0.29541-0.0131 0.52929-6e-3 4.0494 0.12457 9.238 0.59769 14.43-0.61914 3.5791-0.83888 10.336-2.0561 17.697-2.2266z" color="#000000" fill="#b280ff" style="-inkscape-stroke:none"/><path transform="translate(-3.3512 .14457)" d="m278.89 55.48-3.8594 3.2422c-10.433 8.765-31.998 27.103-40.102 43.588-10.138 20.623-8.5544 45.458 2.2852 63.062 5.6386 9.1574 13.478 12.71 18.986 14.375 2.7542 0.83239 4.9378 1.38 6.0254 1.8594s0.89618 0.35766 1.082 0.80469c-0.0541-0.13019 0.41882 1.5193 0.73047 3.6426s0.61462 4.9051 0.90625 8.0566c0.58326 6.3031 1.1295 14.101 1.7773 21.709 0.6478 7.6083 1.3816 14.994 2.4395 20.818 0.25587 1.4088 0.66735 2.4801 0.97656 3.7148-1.2195 0.34882-2.3487 0.52689-3.6914 1.0078-5.5731 1.9961-12.335 5.0518-19.248 8.2949-6.9128 3.2431-13.939 6.67-19.689 9.3164-2.8751 1.3232-5.437 2.4524-7.4316 3.2441s-3.6574 1.2057-3.5176 1.1875c-0.48006 0.0626-0.28128 0.167-1.2402-0.53516s-2.5251-2.32-4.623-4.2891c-4.1959-3.938-11.192-8.9494-21.941-9.2539-20.665-0.58532-42.967 10.46-55.758 29.551-10.225 15.26-15.323 43.106-17.697 56.523l-0.87696 4.9648 4.7363 1.7207c12.807 4.653 39.471 14.16 57.799 12.936 22.928-1.532 43.647-15.322 53.473-33.512 5.1112-9.4618 4.2675-18.026 2.9551-23.629-0.65622-2.8014-1.2737-4.9649-1.4023-6.1465-0.12861-1.1816-0.13797-0.95732 0.15625-1.3418-0.0857 0.11197 1.106-1.1216 2.7891-2.4531 1.683-1.3316 3.9399-2.9861 6.5234-4.8144 5.167-3.6567 11.649-8.0274 17.914-12.393 6.265-4.3651 12.293-8.695 16.809-12.523 1.0917-0.92563 1.8141-1.8163 2.7285-2.7012 0.9118 0.88164 1.631 1.771 2.7188 2.6934 4.5152 3.8284 10.544 8.1564 16.809 12.521 6.265 4.3651 12.745 8.7378 17.912 12.395 2.5835 1.8283 4.8404 3.4809 6.5234 4.8125s2.8748 2.5651 2.7891 2.4531c0.29421 0.38447 0.28486 0.16024 0.15625 1.3418-0.12861 1.1816-0.74612 3.3451-1.4024 6.1465-1.3125 5.6028-2.1542 14.169 2.957 23.631 9.8256 18.189 30.542 31.98 53.471 33.512 18.328 1.2246 44.992-8.2847 57.799-12.938l4.7383-1.7207-0.87891-4.9629c-2.3741-13.418-7.473-41.264-17.697-56.523-12.791-19.091-35.09-30.138-55.756-29.553-10.75 0.30447-17.745 5.3178-21.941 9.2559-2.098 1.969-3.666 3.585-4.625 4.2871-0.95895 0.70216-0.75822 0.59773-1.2383 0.53516 0.13981 0.0182-1.5249-0.39574-3.5195-1.1875-1.9947-0.79176-4.5546-1.9209-7.4297-3.2441-5.7503-2.6464-12.777-6.0733-19.689-9.3164-6.9128-3.2431-13.677-6.2988-19.25-8.2949-1.3471-0.48247-2.48-0.66225-3.7031-1.0117 0.30773-1.2307 0.71773-2.2976 0.97266-3.7012 1.0579-5.8245 1.7916-13.21 2.4394-20.818 0.6478-7.6082 1.1941-15.406 1.7773-21.709 0.29163-3.1516 0.5946-5.9333 0.90625-8.0566 0.31166-2.1233 0.7846-3.7728 0.73047-3.6426 0.18585-0.44703-6e-3 -0.32529 1.082-0.80469 1.0876-0.4794 3.2712-1.027 6.0254-1.8594 5.5084-1.6648 13.348-5.2176 18.986-14.375 10.839-17.604 12.425-42.44 2.2871-63.062-8.1035-16.485-29.671-34.823-40.104-43.588zm0 15.836c10.865 9.4988 28.136 25.999 33.193 36.287 8.1711 16.622 6.6414 37.871-1.7363 51.477-3.97 6.4474-7.722 7.8147-12.238 9.1797-2.2582 0.68247-4.6965 1.1779-7.3945 2.3672s-5.8384 3.6058-7.3242 7.1797c-0.88962 2.1399-1.1552 4.01-1.5215 6.5059s-0.68075 5.4332-0.98243 8.6934c-0.60335 6.5203-1.148 14.313-1.7852 21.797-0.0587 0.68885-0.15042 1.1298-0.21094 1.8125-0.0605-0.68265-0.15228-1.1236-0.21094-1.8125-0.63719-7.4838-1.1818-15.277-1.7852-21.797-0.30168-3.2602-0.6161-6.1975-0.98242-8.6934-0.36633-2.4958-0.63186-4.366-1.5215-6.5059-1.4858-3.5739-4.6262-5.9904-7.3242-7.1797s-5.1364-1.6847-7.3945-2.3672c-4.5163-1.365-8.2683-2.7323-12.238-9.1797-8.3775-13.606-9.9056-34.854-1.7344-51.477 5.0575-10.288 22.327-26.789 33.191-36.287zm24.93 188.47c0.62386 0.29002 1.0533 0.43179 1.6816 0.72657 6.7997 3.19 13.821 6.6159 19.77 9.3535 2.9742 1.3688 5.6769 2.5654 8.0215 3.4961 2.3446 0.93067 4.0966 1.6361 6.3945 1.9356 3.838 0.5002 7.4999-1.012 9.8789-2.7539s4.026-3.6063 5.7461-5.2207c3.4402-3.2288 6.5017-5.7934 14.07-6.0078 15.971-0.45238 35.137 8.8485 45.447 24.236 6.3813 9.5241 12.036 32.73 14.83 46.889-13.659 4.6602-36.585 11.366-48.023 10.602-18.481-1.2348-36.117-13.184-43.711-27.242-3.5987-6.6618-2.9081-10.594-1.832-15.188 0.53803-2.2968 1.3294-4.6547 1.6484-7.5859 0.31906-2.9312-0.20249-6.8599-2.5547-9.9336-1.4084-1.8404-2.8967-3.0051-4.875-4.5703s-4.3646-3.3079-7.0371-5.1992c-5.3451-3.7827-11.822-8.1496-17.984-12.443-0.56973-0.39696-0.90733-0.69828-1.4707-1.0938zm-49.844 0.01c-0.56338 0.39547-0.90097 0.69679-1.4707 1.0938-6.1625 4.2937-12.639 8.6607-17.984 12.443-2.6725 1.8913-5.0588 3.634-7.0371 5.1992s-3.4647 2.7299-4.873 4.5703c-2.3522 3.0737-2.8757 7.0004-2.5566 9.9316 0.31906 2.9312 1.1104 5.2891 1.6484 7.5859 1.0761 4.5937 1.7686 8.5276-1.8301 15.189-7.594 14.058-25.232 26.005-43.713 27.24-11.439 0.76428-34.365-5.9398-48.023-10.6 2.7935-14.159 8.449-37.367 14.83-46.891 10.31-15.388 29.477-24.687 45.449-24.234 7.5686 0.21437 10.628 2.779 14.068 6.0078 1.7201 1.6144 3.3671 3.4788 5.7461 5.2207s6.0428 3.2541 9.8809 2.7539c2.298-0.29949 4.0499-1.0049 6.3945-1.9356 2.3446-0.93067 5.0453-2.1273 8.0195-3.4961 5.9484-2.7376 12.97-6.1635 19.77-9.3535 0.62833-0.29478 1.0578-0.43654 1.6816-0.72656z" color="#000000" fill="#8700ff" style="-inkscape-stroke:none"/></g><path transform="rotate(30,245.92,213.01)" d="m275.46 151.73c-2.8108 0.0372-4.4288 0.83791-6.4688 1.7461-2.0399 0.90818-4.169 2.0776-6.2461 3.4141-2.077 1.3365-4.082 2.8203-5.8379 4.4707s-3.4373 3.2422-4.3535 6.3496c-1.0449 3.5437-0.48693 6.9963 0.22852 9.5137s1.4883 4.5061 1.9863 7.2227c0.41908 2.2861 1.2008 10.992 1.7871 19.318 0.58632 8.3264 1.0803 16.674 1.3203 20.176 0.27188 3.9664 1.3074 8.7874 3.4473 13.379-5.0805 0.43114-9.8043 1.9586-13.396 3.7168-3.1525 1.543-10.629 5.288-18.133 8.9434s-15.434 7.3332-17.623 8.1133c-2.6016 0.92701-4.7102 1.2515-7.248 1.8906-2.5379 0.63911-5.807 1.8819-8.3535 4.5586-2.2332 2.3475-2.7711 4.5993-3.3223 6.9453s-0.83435 4.8238-0.95312 7.291-0.0676 4.8983 0.16601 7.1191c0.23357 2.2208 0.35149 4.0218 1.7246 6.4746l0.0782 0.1368c1.4376 2.4156 2.9396 3.4179 4.7461 4.7305s3.8861 2.5726 6.082 3.7031 4.4818 2.1229 6.7891 2.8184c2.3072 0.69546 4.5266 1.3559 7.6758 0.5957 3.5913-0.86694 6.3026-3.0768 8.125-4.9551s3.1581-3.5424 5.2617-5.332c1.7703-1.506 8.9183-6.5341 15.836-11.205s13.902-9.2737 16.814-11.232c3.299-2.2186 6.9549-5.5269 9.8613-9.6758 2.9137 4.1847 6.599 7.5121 9.918 9.7441 2.9125 1.9587 9.8948 6.5615 16.812 11.232 6.9177 4.671 14.066 9.6991 15.836 11.205 2.1036 1.7896 3.4393 3.4557 5.2617 5.334s4.5337 4.0862 8.125 4.9531c3.1496 0.7603 5.3704 0.1 7.6777-0.5957 2.3073-0.69566 4.593-1.6896 6.7891-2.8203 2.196-1.1308 4.2755-2.3904 6.082-3.7031s3.3065-2.3149 4.7441-4.7305l0.041-0.0684 0.0391-0.0684c1.3731-2.4528 1.4892-4.2539 1.7226-6.4746 0.23347-2.2207 0.28493-4.6502 0.16602-7.1172s-0.39984-4.9452-0.95117-7.291-1.0913-4.5981-3.3242-6.9453c-2.5465-2.6767-5.8137-3.9195-8.3516-4.5586s-4.6484-0.96361-7.25-1.8906c-2.1894-0.78011-10.119-4.4559-17.623-8.1113s-14.98-7.4024-18.133-8.9453c-3.5711-1.7478-8.2639-3.2607-13.311-3.7031 2.1674-4.6159 3.2069-9.4705 3.4805-13.461 0.24002-3.5016 0.73399-11.849 1.3203-20.176 0.58632-8.3264 1.368-17.032 1.7871-19.318 0.498-2.7166 1.2709-4.7053 1.9863-7.2227 0.71545-2.5174 1.2734-5.97 0.22851-9.5137-0.91635-3.1078-2.5993-4.7012-4.3555-6.3516-1.7561-1.6504-3.7586-3.1323-5.8359-4.4688s-4.208-2.5079-6.248-3.416-3.658-1.7069-6.4688-1.7441h-0.0801zm0.0801 12.033c-0.68264 9.2e-4 0.38648 0.10337 1.668 0.67383 1.3432 0.59795 3.0398 1.5188 4.6348 2.5449 1.5949 1.0261 3.1085 2.1788 4.1133 3.123 1.0048 0.94426 1.3276 1.9056 1.0605 1 0.25381 0.86077 0.23023 1.1138-0.25976 2.8379s-1.5465 4.5128-2.248 8.3398c-0.78048 4.2575-1.3605 12.223-1.9531 20.639-0.5926 8.4155-1.0947 16.88-1.3223 20.199-0.1808 2.6376-1.103 6.8082-2.4941 9.6035-1.3892 2.7914-2.3668 3.4253-3.1992 3.4277-0.83238-2e-3 -1.8104-0.6364-3.1992-3.4277-1.3908-2.7953-2.3113-6.9654-2.4922-9.6035-0.22754-3.3194-0.72967-11.784-1.3223-20.199-0.5926-8.4155-1.1726-16.381-1.9531-20.639-0.70156-3.827-1.758-6.6157-2.248-8.3398s-0.51357-1.9771-0.25977-2.8379c-0.26689 0.90516 0.0559-0.0577 1.0606-1.002 1.0046-0.94425 2.5166-2.095 4.1113-3.1211s3.2918-1.947 4.6348-2.5449c1.2813-0.57042 2.3506-0.67291 1.668-0.67383zm-12.773 85.41c3.1121-0.19262 4.1501 0.33697 4.5684 1.0566 0.41345 0.72215 0.353 1.8872-1.3691 4.4844-1.7254 2.6021-4.876 5.4852-7.0703 6.9609-2.761 1.8568-9.8403 6.5232-16.832 11.244s-13.6 9.2071-16.896 12.012c-2.9635 2.5211-4.8495 4.8288-6.0976 6.1152s-1.4577 1.434-2.3301 1.6445c0.91735-0.22145-0.0764-0.0201-1.3965-0.41797-1.3201-0.3979-3.0738-1.132-4.7598-2s-3.3322-1.8781-4.5215-2.7422c-1.1348-0.82454-1.7589-1.6978-1.418-1.1055 0.34424 0.59498-0.10118-0.38672-0.24805-1.7832-0.15378-1.4623-0.20643-3.3908-0.11523-5.2852 0.0912-1.8943 0.33306-3.7808 0.64843-5.123 0.31538-1.3423 0.98667-2.1039 0.33594-1.4199 0.61855-0.65018 0.84978-0.75565 2.5879-1.1934 1.7381-0.4377 4.6806-0.91868 8.3457-2.2246 4.0773-1.4528 11.267-4.9324 18.852-8.627s15.164-7.4924 18.152-8.9551c2.3746-1.1622 6.448-2.4477 9.5644-2.6406zm25.43 0.0664c3.1162 0.1932 7.1893 1.4801 9.5644 2.6426 2.9885 1.4627 10.568 5.2606 18.152 8.9551s14.774 7.1741 18.852 8.627c3.6651 1.3059 6.6076 1.7869 8.3457 2.2246 1.7381 0.43771 1.9713 0.54318 2.5898 1.1934-0.65045-0.68372 0.0205 0.0778 0.33594 1.4199 0.31543 1.3422 0.55714 3.227 0.64843 5.1211 0.0913 1.8941 0.0385 3.8251-0.11523 5.2871-0.14663 1.3948-0.5901 2.3718-0.24805 1.7812 0.34111-0.59253-0.28488 0.28265-1.4199 1.1074-1.1895 0.86431-2.8354 1.874-4.5215 2.7422-1.6861 0.86818-3.4396 1.602-4.7598 2-1.3201 0.39802-2.3142 0.19643-1.3965 0.41797-0.87235-0.21059-1.08-0.35814-2.3281-1.6445-1.2481-1.2864-3.1361-3.5942-6.0996-6.1152-3.2968-2.8047-9.9048-7.2908-16.896-12.012s-14.071-9.3874-16.832-11.244c-2.1938-1.4754-5.345-4.3585-7.0703-6.9609-1.722-2.5975-1.7806-3.7622-1.3672-4.4844 0.41827-0.71967 1.4546-1.2515 4.5664-1.0586z" color="#000000" fill="#9366ff" style="-inkscape-stroke:none"/></g></svg>
