<?xml version="1.0" encoding="UTF-8"?>
<!-- Created with Inkscape (http://www.inkscape.org/) -->
<svg width="150" height="50" version="1.1" viewBox="0 0 39.687 13.229" xml:space="preserve" xmlns="http://www.w3.org/2000/svg" xmlns:xlink="http://www.w3.org/1999/xlink"><defs><linearGradient id="linearGradient9" x1="33.772" x2="83.313" y1="11.909" y2="11.909" gradientTransform="matrix(.50171 0 0 1 27.348 .56393)" gradientUnits="userSpaceOnUse"><stop stop-color="#8500ff" offset="0"/><stop stop-color="#8700ff" stop-opacity="0" offset="1"/></linearGradient><linearGradient id="linearGradient14" x1="74.021" x2="83.313" y1="6.669" y2="6.669" gradientTransform="translate(-14.166 1.0545)" gradientUnits="userSpaceOnUse"><stop stop-color="#ff353c" stop-opacity=".37" offset="0"/><stop stop-color="#ff353c" stop-opacity="0" offset="1"/></linearGradient><linearGradient id="linearGradient15" x1="74.021" x2="83.313" y1="8.4277" y2="8.4277" gradientTransform="translate(-14.166 .87899)" gradientUnits="userSpaceOnUse"><stop stop-color="#00cf6b" stop-opacity=".37" offset="0"/><stop stop-color="#00cf6b" stop-opacity="0" offset="1"/></linearGradient><linearGradient id="linearGradient16" x1="74.021" x2="83.313" y1="10.186" y2="10.186" gradientTransform="translate(-14.166 .70349)" gradientUnits="userSpaceOnUse"><stop stop-color="#0d00e4" stop-opacity=".37" offset="0"/><stop stop-color="#0d00e4" stop-opacity="0" offset="1"/></linearGradient></defs><g transform="translate(-32.458 -1.9857)"><text x="44.054459" y="1.8266299" fill="#000000" font-family="Manrope" font-size="8.9958px" font-weight="bold" letter-spacing="0em" stroke-width=".26458" style="white-space:pre" xml:space="preserve"><tspan x="44.319038" y="11.357444" fill="#000000" font-family="Vollkorn" font-weight="600" stroke-width=".26458">Iris</tspan></text><g transform="matrix(.020776 .011995 -.011995 .020776 38.224 -.90739)"><path d="m210.14 228.52c-5.2505-0.19319-10.864 0.43271-16.566 1.1738-11.129 1.4463-22.242 4.1089-29.494 6.0195l-6.8281 0.42773 1.9199 7.0957c1.9527 7.2173 5.3053 18.581 9.7246 29.203s9.0616 20.706 17.697 25.531c15.475 8.6469 34.245 5.7707 44.037 3.8066l0.76953-0.15429 0.70508-0.34766c0.40385-0.19911 1.4148-0.7059 1.5488-0.77148 2.1282-1.0416 5.6138-2.2024 8.5606-2.543 2.9467-0.34062 4.8914 0.29214 5.3125 0.66992l0.33984 0.30469 0.0684 0.36523c0.10576 0.55878-0.35744 2.5929-2.1328 4.9609s-4.5068 4.7815-6.4609 6.0957c-0.0146 0.01-0.84187 0.55067-1.2305 0.81055l-0.64258 0.42969-0.51172 0.57812c-6.5486 7.3878-18.71 22.348-18.963 40.311-0.13915 9.8941 6.2795 18.955 13.273 28.09s15.164 17.718 20.436 23.016l4.2539 4.2734 4.252-4.2734c5.2722-5.298 13.438-13.878 20.428-23.01 6.9894-9.1318 13.403-18.189 13.264-28.08-0.2488-17.69-12.072-32.499-18.678-40.018l-0.51953-0.59179-0.6543-0.4375c-0.33895-0.22648-1.3158-0.87795-1.5234-1.0176-1.9709-1.3254-4.7292-3.7719-6.498-6.1582-1.7688-2.3863-2.1835-4.3747-2.0645-4.9238l0.0879-0.40625 0.29297-0.25391c0.17263-0.14971 0.27824-0.21573 0.32032-0.23828 0.74759-0.40067 3.0801-0.7511 5.8281-0.32031 2.748 0.43079 5.7888 1.4831 7.7148 2.4258v2e-3c0.33298 0.16296 1.2815 0.61991 1.5059 0.73047l0.69922 0.34375 0.76563 0.1543c9.7326 1.9675 28.641 4.9306 44.219-3.7734 8.6357-4.8252 13.275-14.907 17.691-25.527 4.4164-10.62 7.7664-21.985 9.7188-29.201l1.5742-5.8203-5.8281-1.5449c-7.2255-1.9172-18.741-4.6981-30.146-6.1836-10.854-1.4136-21.36-2.3447-29.676 1.9277l-0.30859 0.0508-0.97071 0.57813c-15.312 9.1301-22.194 26.974-25.359 36.396l-0.24805 0.73828-0.0508 0.77735c-0.0151 0.22879-0.0903 1.2306-0.11523 1.5938-0.16172 2.3592-0.89591 5.9512-2.0703 8.6719-1.1744 2.7206-2.6952 4.1016-3.2344 4.2812l-0.39648 0.13281-0.37891-0.12695c-0.53734-0.17965-2.0593-1.5637-3.2324-4.2852-1.1731-2.7215-1.9066-6.3106-2.0684-8.6699v-2e-3c-0.0163-0.23709-0.0882-1.3516-0.11328-1.7324l-0.0527-0.78125-0.25-0.74024c-2.5258-7.494-7.4694-20.147-16.984-29.625l-19.133 2.4844c2.0673 0.29329 3.7945 0.66183 4.6172 1.1523 10.155 6.0552 16.942 20.693 19.887 29.205 0.0224 0.34323 0.0448 0.68709 0.0566 0.85938 0.2567 3.7449 1.1435 8.2449 3.0215 12.602 0.10856 0.25185 0.2628 0.50439 0.3789 0.75781-0.29109 0.0266-0.60129 0.0197-0.88672 0.0527-4.7252 0.54619-9.0776 2.0306-12.459 3.6855-0.19415 0.095-0.46569 0.23103-0.77344 0.38477-8.8648 1.7043-24.87 3.1312-35.158-2.6172-2.6744-1.4943-8.3959-9.8702-12.471-19.664-3.0172-7.2519-5.3608-14.656-7.2559-21.09l-6.791 0.88086 0.29102-0.0781 6.4883-0.83985c-0.0677-0.22987-0.1333-0.45175-0.19922-0.67773 6.6337-1.6213 14.531-3.3835 22.611-4.4336 7.1807-0.93318 13.99-0.82448 18.541-0.19141l19.217-2.4883c-2.4811-2.4691-5.2001-4.776-8.3535-6.6562-4.2476-2.5326-9.1342-3.5431-14.385-3.7363zm99.016 12.475c2.4679 0.0963 5.0701 0.30407 7.6992 0.64648 8.0814 1.0525 15.981 2.8169 22.615 4.4395-1.9122 6.5572-4.3336 14.278-7.4629 21.803-4.072 9.7923-9.7906 18.168-12.465 19.662-10.371 5.7947-26.536 4.2952-35.355 2.582-0.27939-0.13526-0.62246-0.30136-0.70508-0.34179-3.0623-1.4988-6.9216-2.8441-11.131-3.5039-0.70134-0.10994-1.469-0.0438-2.1934-0.11523 0.14545-0.31233 0.33291-0.62344 0.46679-0.9336 1.8809-4.3573 2.7685-8.8598 3.0254-12.607 5e-3 -0.078 0.0307-0.42746 0.0508-0.70117 2.9298-8.5061 9.7087-23.244 19.896-29.318 1.9734-1.1767 8.1548-1.9002 15.559-1.6113zm-53.246 69.707c0.16442 0.23304 0.30958 0.49934 0.47656 0.72461 2.8395 3.8306 6.3114 6.8657 9.4414 8.9707 0.15942 0.10721 0.47743 0.31945 0.79492 0.53125 5.9072 6.8329 15.112 19.978 15.277 31.742 0.0431 3.0632-4.3488 12.2-10.793 20.619-4.9526 6.4707-10.429 12.427-15.152 17.361-4.7248-4.9354-10.204-10.895-15.16-17.369-6.4489-8.4234-10.844-17.565-10.801-20.625 0.16813-11.954 9.6404-25.251 15.521-31.994 0.21514-0.1409 0.35451-0.23211 0.52344-0.3457 3.097-2.0828 6.534-5.0811 9.3652-8.8574 0.17703-0.23612 0.33162-0.51337 0.50586-0.75781z" color="#000000" fill="#b280ff" style="-inkscape-stroke:none"/><path d="m255.99 104.32-3.8594 3.2422c-10.43 8.7624-31.996 27.082-40.1 43.568-10.137 20.621-8.5653 45.459 2.2754 63.064 7.1794 11.66 17.852 14.019 22.889 15.523l10.344 3.0898-2.8359-10.416c-0.37141-1.3639-0.33339-1.6821-0.17383-2.3106 0.20354-0.19358 0.82756-1.154 1.8828-2.0371 1.5412-1.2898 3.6977-2.7281 5.6758-3.8105 1.6975-0.92896 3.6622-1.4543 4.1582-1.6777-0.11737 0.0416 0.32971 0.0885 1.418 0.57227 1.3433 0.5971 3.0401 1.5163 4.6348 2.541 1.5946 1.0247 3.1072 2.1742 4.1113 3.1172 1.0042 0.94294 1.3258 1.9041 1.0586 0.99805 0.23321 0.79091 0.21919 1.0352-0.20508 2.6016l-2.8125 10.391 10.316-3.0703c5.0323-1.4975 15.711-3.8432 22.889-15.5 10.839-17.603 12.44-42.449 2.3008-63.074-8.1047-16.487-29.678-34.809-40.107-43.57zm0 15.834c10.868 9.4977 28.141 25.985 33.197 36.271 8.1697 16.62 6.6301 37.882-1.748 51.488-2.8845 4.6846-5.696 6.6822-8.7207 7.9512-0.94908-2.6978-2.461-4.291-4.0938-5.8242-1.7566-1.6495-3.7625-3.1319-5.8398-4.4668-2.0774-1.3349-4.2062-2.5034-6.2461-3.4102-2.0399-0.90674-3.6592-1.705-6.4668-1.7422h-0.1582c-4.1991 0.0556-6.4333 1.5608-9.5879 3.2871-2.6186 1.433-5.2814 3.1797-7.6152 5.1328-2.2106 1.85-4.3014 3.5476-5.4922 7.0156-3.0142-1.2753-5.8165-3.281-8.6934-7.9531-8.3764-13.604-9.8965-34.854-1.7246-51.479 5.0569-10.287 22.323-26.774 33.189-36.271zm-12.279 160.63 3.0078 8.1152-8.4199 1.4492 9.2266 8.2773c0.22696 0.20362 0.25904 0.26975 0.26562 0.28125 5e-5 8e-5 2e-3 2e-3 2e-3 2e-3 0.0754 0.13226 0.11015 0.22567 0.14063 0.38672l2.3613 12.477 5.6953-6.8203 5.3516 6.4824 2.6191-12.084c0.0575-0.26508 0.0979-0.33327 0.11524-0.36328 0.0447-0.0772 0.0915-0.14589 0.26562-0.29688l9.627-8.3516-8.7227-1.457 3.002-8.0879-11.877 3.959c-0.26947 0.0898-0.35259 0.0898-0.38672 0.0899-0.0678-1.4e-4 -0.15317-5e-3 -0.38867-0.084zm12.238 6.5664h0.084c0.73422 5e-3 1.2294 0.267 1.7441 0.49219-0.6089 0.051-1.3007 0.23749-2.0664 0.53906-0.34434-0.0825-0.76036-0.29096-1.0508-0.32617-0.48501-0.0588-0.81755 0.0584-1.248 0.0566 0.60456-0.39237 1.4316-0.75411 2.5371-0.76172zm6.623 7.7226c6e-3 0.11079-0.0272 0.19759-0.0293 0.31836l-2.3086 4.0293c-0.13417 0.0786-0.0756 0.0256-0.19141 0.0898 0.20481-0.36367 0.46736-0.5851 0.6504-1.0176 0.15026-0.35503 0.19874-0.93844 0.31835-1.4082 0.31635-0.31384 0.77437-0.62378 0.98829-0.9082 0.29421-0.39118 0.35625-0.73285 0.57226-1.1035zm-13.166 0.0156c0.22246 0.37791 0.28905 0.73283 0.59179 1.1289 0.21822 0.28548 0.6751 0.59049 0.99414 0.90234 0.10835 0.42409 0.14206 0.96514 0.27735 1.291 0.19949 0.48054 0.48162 0.72503 0.70703 1.1191-0.63247-0.32446-1.3524-0.86061-1.9121-1.8145l-0.041-0.0723c-0.54873-0.96603-0.65261-1.8512-0.61718-2.5547zm96.734 3.0469c-6.7155 0.19021-12.069 2.1155-16.07 4.6192-4.19 2.6214-6.928 5.6853-8.8711 7.5156l-7.8691 7.4121 10.453 2.7578c1.5868 0.41857 1.807 0.52774 2.3789 1.1289-0.65112-0.68442 0.0195 0.0749 0.33398 1.416 0.31453 1.3411 0.55443 3.2258 0.64453 5.1191 0.0901 1.8934 0.0374 3.8233-0.11719 5.2852-0.14743 1.3947-0.59085 2.3716-0.25 1.7832 0.34401-0.5968-0.28494 0.28428-1.4219 1.1113-1.1896 0.86537-2.8357 1.8768-4.5215 2.7461-1.6858 0.86935-3.4383 1.6033-4.7578 2.002-1.3195 0.39862-2.3143 0.1979-1.3945 0.41992-0.79184-0.19114-1.0004-0.32756-2.1328-1.4668l-7.5781-7.623-2.5117 10.451c-1.2361 5.1444-4.4754 15.534 2 27.521 9.8268 18.191 30.552 31.97 53.479 33.502 18.328 1.2246 45.002-8.2802 57.811-12.934l4.7383-1.7207-0.87891-4.9648c-2.3746-13.421-7.4858-41.267-17.709-56.525-12.791-19.09-35.088-30.142-55.754-29.557zm-180.28 0.0137c-11.627-0.32934-23.719 3.1081-34.398 9.4805-8.3097 4.9583-15.766 11.732-21.359 20.08-10.225 15.261-15.32 43.107-17.693 56.523l-0.87891 4.9629 4.7383 1.7227c12.81 4.654 39.464 14.144 57.787 12.92 22.928-1.5319 43.652-15.317 53.479-33.508 6.5517-12.128 3.1686-22.603 1.9727-27.678l-2.4961-10.594-7.625 7.7676c-1.1947 1.2168-1.4056 1.3578-2.2051 1.5508 0.91789-0.22157-0.0767-0.0219-1.3965-0.41992-1.3198-0.39806-3.074-1.1317-4.7598-2s-3.3302-1.8778-4.5195-2.7422c-1.1349-0.82488-1.7607-1.6994-1.4199-1.1074 0.34185 0.59025-0.1031-0.38822-0.25-1.7832-0.15396-1.4622-0.20616-3.391-0.11523-5.2852 0.0909-1.8941 0.33327-3.781 0.64844-5.123 0.31517-1.342 0.98482-2.1021 0.33398-1.418 0.29929-0.3146 0.48153-0.43795 0.83399-0.61133 0.24401-0.12004 0.78552-0.31612 1.5801-0.52344l10.463-2.7305-7.8535-7.4336c-3.8201-3.6151-11.194-11.664-24.865-12.051zm180.62 11.98c15.97-0.45235 35.135 8.8538 45.445 24.242 6.382 9.5252 12.047 32.733 14.842 46.891-13.66 4.6596-36.596 11.366-48.035 10.602-18.483-1.2349-36.126-13.176-43.719-27.232-2.5976-4.8087-2.9345-8.2346-2.5352-11.477 2.7959 0.51657 4.9279 0.0107 7.0644-0.63477 2.3073-0.69703 4.5916-1.694 6.7871-2.8262 2.1955-1.1322 4.2743-2.3934 6.0801-3.707 1.8058-1.3136 3.3057-2.3148 4.7422-4.7285l0.041-0.0684 0.0391-0.0703c1.3716-2.4501 1.4899-4.2488 1.7246-6.4688s0.2873-4.6507 0.16992-7.1172-0.39903-4.9431-0.94922-7.2891c-0.50502-2.1533-1.14-4.2349-2.9453-6.377 0.40688-0.30222 0.76765-0.66895 1.2031-0.94141 2.4206-1.5144 5.3114-2.6628 10.045-2.7969zm-180.96 0.0137c5.462 0.1547 8.5952 1.5663 11.197 3.5254-1.8964 2.1879-2.5172 4.3088-3.0332 6.5059-0.55096 2.346-0.83274 4.822-0.95117 7.2891s-0.0659 4.8985 0.16797 7.1191c0.23383 2.2206 0.35184 4.0205 1.7246 6.4727l0.0782 0.1368c1.4373 2.4149 2.9379 3.4176 4.7441 4.7305 1.8062 1.3128 3.8863 2.5722 6.082 3.7031s4.4819 2.1264 6.7891 2.8223c2.1732 0.65547 4.325 1.1902 7.1934 0.625 0.41394 3.2589 0.0875 6.6977-2.5352 11.553-7.593 14.056-25.241 26.003-43.723 27.238-11.442 0.76449-34.355-5.9291-48.01-10.586 2.7932-14.159 8.4454-37.365 14.826-46.889 4.5135-6.7365 10.654-12.347 17.539-16.455 8.8569-5.2848 18.929-8.0454 27.91-7.791z" color="#000000" fill="#8700ff" style="-inkscape-stroke:none"/><path d="m255.92 200.42c-4.1992 0.0556-6.4333 1.5608-9.5879 3.2871-2.6186 1.433-5.2814 3.1797-7.6152 5.1328-2.3338 1.9531-4.5679 3.6694-5.7129 7.5527-1.045 3.5442-0.48726 6.9982 0.22852 9.5156 0.71577 2.5174 1.4903 4.5044 1.9883 7.2207 0.41914 2.2864 1.2005 10.994 1.7871 19.32 0.58663 8.3265 1.0803 16.675 1.3203 20.176 0.27178 3.9648 1.3093 8.7852 3.4473 13.377-5.0798 0.43417-9.8026 1.9636-13.393 3.7207-3.1535 1.5434-10.632 5.2903-18.137 8.9473s-15.437 7.3356-17.625 8.1152c-3.8982 1.389-6.9819 1.1749-11.375 3.3359-1.4528 0.71466-2.9473 1.7586-4.2305 3.1074-2.2333 2.3476-2.7733 4.6012-3.3242 6.9473s-0.83274 4.822-0.95117 7.2891-0.0659 4.8985 0.16797 7.1191c0.23383 2.2206 0.35184 4.0205 1.7246 6.4727l0.0782 0.1368c1.4373 2.4149 2.9379 3.4176 4.7441 4.7305 1.8062 1.3128 3.8863 2.5722 6.082 3.7031s4.4819 2.1264 6.7891 2.8223c2.3072 0.69587 4.526 1.356 7.6758 0.59571 3.5948-0.86776 6.308-3.0829 8.1289-4.9629 1.8209-1.88 3.154-3.544 5.2559-5.332 1.7692-1.5051 8.9202-6.534 15.84-11.205 6.9196-4.6711 13.903-9.2731 16.816-11.232 3.297-2.2173 6.9532-5.5254 9.8613-9.6719 2.9166 4.1892 6.607 7.5187 9.9277 9.752 2.9122 1.9585 9.8948 6.5592 16.812 11.23s14.067 9.7028 15.838 11.209c2.1034 1.7894 3.4375 3.4534 5.2598 5.332 1.8223 1.8786 4.535 4.088 8.127 4.9551 3.1516 0.76078 5.3724 0.0994 7.6797-0.59766 2.3073-0.69702 4.5916-1.694 6.7871-2.8262s4.2743-2.3934 6.0801-3.707c1.8058-1.3136 3.3057-2.3148 4.7422-4.7285l0.041-0.0684 0.0391-0.0703c1.3716-2.4501 1.4899-4.2488 1.7246-6.4688s0.2873-4.6507 0.16992-7.1172-0.39902-4.9431-0.94922-7.2891c-0.55019-2.346-1.0887-4.5994-3.3223-6.9473-2.546-2.6762-5.8095-3.922-8.3496-4.5644-2.5401-0.64243-4.6559-0.96867-7.2598-1.8965-2.1901-0.78039-10.123-4.4578-17.629-8.1133-7.5062-3.6555-14.985-7.4009-18.137-8.9434-3.0623-1.4988-6.9216-2.8441-11.131-3.5039-0.7057-0.11063-1.4781-0.0436-2.207-0.11523 2.1917-4.6401 3.2309-9.5292 3.5059-13.541 0.23971-3.4971 0.7381-11.842 1.3281-20.166 0.59003-8.3236 1.3749-17.025 1.7949-19.316 0.49843-2.7189 1.2707-4.7153 1.9844-7.2363 0.71367-2.521 1.2693-5.9706 0.2246-9.5137-0.91651-3.1083-2.5989-4.7002-4.3555-6.3496s-3.7625-3.1319-5.8398-4.4668c-2.0774-1.3349-4.2062-2.5034-6.2461-3.4102-2.0399-0.90674-3.6592-1.705-6.4668-1.7422h-0.0781zm0.33203 12.135c-0.11737 0.0416 0.32971 0.0885 1.418 0.57227 1.3433 0.5971 3.0401 1.5163 4.6348 2.541 1.5946 1.0247 3.1072 2.1742 4.1113 3.1172 1.0042 0.94294 1.3258 1.9041 1.0586 0.99805 0.25399 0.8614 0.23116 1.1243-0.25782 2.8516-0.48897 1.7273-1.543 4.5152-2.2441 8.3398-0.77958 4.2526-1.3646 12.218-1.9609 20.631-0.59636 8.4128-1.1022 16.871-1.3301 20.195-0.18084 2.6382-1.1008 6.8115-2.4922 9.6094-1.3894 2.7939-2.369 3.4292-3.1992 3.4316-0.83081-2e-3 -1.8085-0.63661-3.1973-3.4297-1.3907-2.797-2.3113-6.9686-2.4922-9.6074-0.22756-3.3198-0.72936-11.784-1.3223-20.199-0.59291-8.4156-1.1746-16.383-1.9551-20.641-0.70162-3.8273-1.7578-6.6155-2.248-8.3398-0.44034-1.5487-0.40961-1.8678-0.23438-2.5488 0.20728-0.2013 0.82733-1.1548 1.877-2.0332 1.5412-1.2898 3.6977-2.7281 5.6758-3.8105 1.6975-0.92897 3.6623-1.4543 4.1582-1.6777zm-13.025 85.299c3.1141-0.1943 4.1513 0.33712 4.5684 1.0547 0.41223 0.72006 0.35338 1.8839-1.3711 4.4824-1.7278 2.6034-4.883 5.4866-7.0781 6.9629-2.76 1.8562-9.8404 6.5231-16.834 11.244-6.9936 4.721-13.602 9.2081-16.9 12.014-2.9653 2.5226-4.8535 4.8345-6.1016 6.123-1.2481 1.2886-1.4534 1.4348-2.3223 1.6445 0.91789-0.22157-0.0767-0.0219-1.3965-0.41992-1.3198-0.39806-3.074-1.1317-4.7598-2s-3.3302-1.8778-4.5195-2.7422c-1.1349-0.82488-1.7607-1.6994-1.4199-1.1074 0.34185 0.59025-0.1031-0.38822-0.25-1.7832-0.15396-1.4622-0.20616-3.391-0.11523-5.2852 0.0909-1.8941 0.33327-3.781 0.64844-5.123 0.31517-1.342 0.98482-2.1021 0.33398-1.418 0.29929-0.3146 0.48153-0.43795 0.83399-0.61133 1.0227-0.50307 4.6036-0.83842 10.105-2.7988 4.0786-1.4533 11.27-4.9347 18.855-8.6309s15.167-7.4968 18.154-8.959c2.376-1.1629 6.4499-2.4519 9.5684-2.6465zm23.605 0.12695c1.0204-0.0843 2.29-0.063 3.6641 0.15235 2.748 0.43079 5.7888 1.4831 7.7148 2.4258 2.9895 1.4631 10.572 5.2605 18.158 8.9551s14.779 7.1764 18.855 8.6289c3.6628 1.3051 6.6034 1.7864 8.3438 2.2266 1.7404 0.44016 1.9806 0.55051 2.5996 1.2012-0.65112-0.68442 0.0195 0.0749 0.33398 1.416 0.31453 1.3411 0.55443 3.2258 0.64453 5.1191 0.0901 1.8934 0.0374 3.8233-0.11719 5.2852-0.14743 1.3947-0.59085 2.3716-0.25 1.7832 0.34401-0.59681-0.28494 0.28428-1.4219 1.1113-1.1896 0.86537-2.8357 1.8768-4.5215 2.7461-1.6858 0.86934-3.4383 1.6033-4.7578 2.002-1.3195 0.39862-2.3143 0.1979-1.3945 0.41992-0.87178-0.21044-1.0799-0.35776-2.3281-1.6445-1.2482-1.2868-3.1339-3.5959-6.0977-6.1172-3.2966-2.8044-9.9048-7.2904-16.896-12.012-6.9917-4.7213-14.071-9.3891-16.832-11.246-2.1948-1.4761-5.3492-4.36-7.0762-6.9629-1.7248-2.5996-1.7827-3.7637-1.3691-4.4844 0.14651-0.25251 0.23226-0.34469 0.58399-0.5332 0.3738-0.20034 1.1437-0.38839 2.1641-0.47266z" color="#000000" fill="#9366ff" style="-inkscape-stroke:none"/></g><path d="m44.69 12.076h24.457v0.79375h-24.855z" fill="url(#linearGradient9)" stroke-width=".18741"/><g stroke-width="4.7633"><rect x="59.856" y="10.493" width="9.2912" height=".79375" fill="url(#linearGradient16)"/><rect x="59.856" y="7.3266" width="9.2912" height=".79375" fill="url(#linearGradient14)"/><rect x="59.856" y="8.9099" width="9.2912" height=".79375" fill="url(#linearGradient15)"/></g></g></svg>
